<mxfile modified="2024-07-16T19:13:44.821Z" host="app.diagrams.net" agent="Mozilla/5.0 (Macintosh; Intel Mac OS X 10_15_7) AppleWebKit/537.36 (KHTML, like Gecko) Chrome/124.0.0.0 Safari/537.36" etag="DJXs7F16avMKIQW3km_O" version="24.6.5" type="device">
  <diagram id="Ht1M8jgEwFfnCIfOTk4-" name="Page-1">
    <mxGraphModel dx="2376" dy="805" grid="1" gridSize="10" guides="1" tooltips="1" connect="1" arrows="1" fold="1" page="1" pageScale="1" pageWidth="1169" pageHeight="827" math="0" shadow="0">
      <root>
        <mxCell id="0" />
        <mxCell id="1" parent="0" />
        <mxCell id="UEzPUAAOIrF-is8g5C7q-74" value="AWS Cloud" style="points=[[0,0],[0.25,0],[0.5,0],[0.75,0],[1,0],[1,0.25],[1,0.5],[1,0.75],[1,1],[0.75,1],[0.5,1],[0.25,1],[0,1],[0,0.75],[0,0.5],[0,0.25]];outlineConnect=0;gradientColor=none;html=1;whiteSpace=wrap;fontSize=12;fontStyle=0;shape=mxgraph.aws4.group;grIcon=mxgraph.aws4.group_aws_cloud_alt;strokeColor=#232F3E;fillColor=none;verticalAlign=top;align=left;spacingLeft=30;fontColor=#232F3E;dashed=0;labelBackgroundColor=#ffffff;container=0;pointerEvents=0;collapsible=0;recursiveResize=0;" parent="1" vertex="1">
          <mxGeometry x="60" y="280" width="948" height="450" as="geometry" />
        </mxCell>
        <mxCell id="kkmnMaWWRDRO8-jn044o-29" style="edgeStyle=orthogonalEdgeStyle;rounded=0;orthogonalLoop=1;jettySize=auto;html=1;" parent="1" source="kkmnMaWWRDRO8-jn044o-2" target="UEzPUAAOIrF-is8g5C7q-77" edge="1">
          <mxGeometry relative="1" as="geometry">
            <Array as="points">
              <mxPoint x="-120" y="690" />
              <mxPoint x="908" y="690" />
            </Array>
          </mxGeometry>
        </mxCell>
        <mxCell id="kkmnMaWWRDRO8-jn044o-30" value="Retrieve React site&lt;div&gt;build for review&lt;/div&gt;" style="edgeLabel;html=1;align=center;verticalAlign=middle;resizable=0;points=[];" parent="kkmnMaWWRDRO8-jn044o-29" vertex="1" connectable="0">
          <mxGeometry x="-0.4848" relative="1" as="geometry">
            <mxPoint as="offset" />
          </mxGeometry>
        </mxCell>
        <mxCell id="kkmnMaWWRDRO8-jn044o-2" value="" style="shape=actor;whiteSpace=wrap;html=1;" parent="1" vertex="1">
          <mxGeometry x="-140" y="370" width="40" height="60" as="geometry" />
        </mxCell>
        <mxCell id="kkmnMaWWRDRO8-jn044o-19" style="edgeStyle=orthogonalEdgeStyle;rounded=0;orthogonalLoop=1;jettySize=auto;html=1;entryX=0;entryY=0.75;entryDx=0;entryDy=0;entryPerimeter=0;" parent="1" source="kkmnMaWWRDRO8-jn044o-2" target="kkmnMaWWRDRO8-jn044o-1" edge="1">
          <mxGeometry relative="1" as="geometry">
            <Array as="points">
              <mxPoint x="-60" y="410" />
              <mxPoint x="-60" y="450" />
              <mxPoint x="100" y="450" />
              <mxPoint x="100" y="419" />
            </Array>
          </mxGeometry>
        </mxCell>
        <mxCell id="kkmnMaWWRDRO8-jn044o-24" value="Curl HTTP Endpoint&lt;br&gt;with URL parameters" style="edgeLabel;html=1;align=center;verticalAlign=middle;resizable=0;points=[];" parent="kkmnMaWWRDRO8-jn044o-19" vertex="1" connectable="0">
          <mxGeometry x="0.1858" y="-4" relative="1" as="geometry">
            <mxPoint x="-18" as="offset" />
          </mxGeometry>
        </mxCell>
        <mxCell id="kkmnMaWWRDRO8-jn044o-26" style="edgeStyle=orthogonalEdgeStyle;rounded=0;orthogonalLoop=1;jettySize=auto;html=1;entryX=0.9;entryY=0.5;entryDx=0;entryDy=0;entryPerimeter=0;" parent="1" source="kkmnMaWWRDRO8-jn044o-1" target="kkmnMaWWRDRO8-jn044o-2" edge="1">
          <mxGeometry relative="1" as="geometry">
            <Array as="points">
              <mxPoint x="100" y="400" />
              <mxPoint x="100" y="370" />
              <mxPoint x="-60" y="370" />
              <mxPoint x="-60" y="400" />
            </Array>
          </mxGeometry>
        </mxCell>
        <mxCell id="kkmnMaWWRDRO8-jn044o-27" value="Return JSON response&lt;div&gt;with launch details&lt;/div&gt;" style="edgeLabel;html=1;align=center;verticalAlign=middle;resizable=0;points=[];" parent="kkmnMaWWRDRO8-jn044o-26" vertex="1" connectable="0">
          <mxGeometry x="-0.1643" relative="1" as="geometry">
            <mxPoint x="-16" as="offset" />
          </mxGeometry>
        </mxCell>
        <mxCell id="UEzPUAAOIrF-is8g5C7q-80" value="Amazon&lt;br&gt;CloudWatch" style="outlineConnect=0;fontColor=#232F3E;gradientColor=#F34482;gradientDirection=north;fillColor=#BC1356;strokeColor=#ffffff;dashed=0;verticalLabelPosition=bottom;verticalAlign=top;align=center;html=1;fontSize=12;fontStyle=0;aspect=fixed;shape=mxgraph.aws4.resourceIcon;resIcon=mxgraph.aws4.cloudwatch;labelBackgroundColor=#ffffff;" parent="1" vertex="1">
          <mxGeometry x="290" y="559" width="78" height="78" as="geometry" />
        </mxCell>
        <mxCell id="kkmnMaWWRDRO8-jn044o-15" style="edgeStyle=orthogonalEdgeStyle;rounded=0;orthogonalLoop=1;jettySize=auto;html=1;" parent="1" source="UEzPUAAOIrF-is8g5C7q-85" edge="1">
          <mxGeometry relative="1" as="geometry">
            <mxPoint x="490" y="399" as="targetPoint" />
          </mxGeometry>
        </mxCell>
        <mxCell id="kkmnMaWWRDRO8-jn044o-22" value="Launch ephemeral&lt;div&gt;EC2 instance&lt;/div&gt;" style="edgeLabel;html=1;align=center;verticalAlign=middle;resizable=0;points=[];" parent="kkmnMaWWRDRO8-jn044o-15" vertex="1" connectable="0">
          <mxGeometry x="-0.1531" y="-3" relative="1" as="geometry">
            <mxPoint x="1" as="offset" />
          </mxGeometry>
        </mxCell>
        <mxCell id="kkmnMaWWRDRO8-jn044o-17" style="edgeStyle=orthogonalEdgeStyle;rounded=0;orthogonalLoop=1;jettySize=auto;html=1;" parent="1" source="UEzPUAAOIrF-is8g5C7q-85" target="UEzPUAAOIrF-is8g5C7q-80" edge="1">
          <mxGeometry relative="1" as="geometry" />
        </mxCell>
        <mxCell id="kkmnMaWWRDRO8-jn044o-18" value="Log Results" style="edgeLabel;html=1;align=center;verticalAlign=middle;resizable=0;points=[];" parent="kkmnMaWWRDRO8-jn044o-17" vertex="1" connectable="0">
          <mxGeometry x="0.0928" y="2" relative="1" as="geometry">
            <mxPoint as="offset" />
          </mxGeometry>
        </mxCell>
        <mxCell id="UEzPUAAOIrF-is8g5C7q-85" value="AWS Lambda" style="outlineConnect=0;fontColor=#232F3E;gradientColor=#F78E04;gradientDirection=north;fillColor=#D05C17;strokeColor=#ffffff;dashed=0;verticalLabelPosition=bottom;verticalAlign=top;align=center;html=1;fontSize=12;fontStyle=0;aspect=fixed;shape=mxgraph.aws4.resourceIcon;resIcon=mxgraph.aws4.lambda;labelBackgroundColor=#ffffff;spacingTop=6;" parent="1" vertex="1">
          <mxGeometry x="290" y="360" width="78" height="78" as="geometry" />
        </mxCell>
        <mxCell id="kkmnMaWWRDRO8-jn044o-16" style="edgeStyle=orthogonalEdgeStyle;rounded=0;orthogonalLoop=1;jettySize=auto;html=1;" parent="1" source="kkmnMaWWRDRO8-jn044o-1" target="UEzPUAAOIrF-is8g5C7q-85" edge="1">
          <mxGeometry relative="1" as="geometry" />
        </mxCell>
        <mxCell id="kkmnMaWWRDRO8-jn044o-28" value="Invoke&lt;div&gt;Lambda&lt;/div&gt;" style="edgeLabel;html=1;align=center;verticalAlign=middle;resizable=0;points=[];" parent="kkmnMaWWRDRO8-jn044o-16" vertex="1" connectable="0">
          <mxGeometry x="-0.1224" relative="1" as="geometry">
            <mxPoint as="offset" />
          </mxGeometry>
        </mxCell>
        <mxCell id="kkmnMaWWRDRO8-jn044o-1" value="API Gateway" style="sketch=0;points=[[0,0,0],[0.25,0,0],[0.5,0,0],[0.75,0,0],[1,0,0],[0,1,0],[0.25,1,0],[0.5,1,0],[0.75,1,0],[1,1,0],[0,0.25,0],[0,0.5,0],[0,0.75,0],[1,0.25,0],[1,0.5,0],[1,0.75,0]];outlineConnect=0;fontColor=#232F3E;fillColor=#E7157B;strokeColor=#ffffff;dashed=0;verticalLabelPosition=bottom;verticalAlign=top;align=center;html=1;fontSize=12;fontStyle=0;aspect=fixed;shape=mxgraph.aws4.resourceIcon;resIcon=mxgraph.aws4.api_gateway;" parent="1" vertex="1">
          <mxGeometry x="120" y="360" width="78" height="78" as="geometry" />
        </mxCell>
        <mxCell id="kkmnMaWWRDRO8-jn044o-14" style="edgeStyle=orthogonalEdgeStyle;rounded=0;orthogonalLoop=1;jettySize=auto;html=1;" parent="1" source="kkmnMaWWRDRO8-jn044o-3" target="kkmnMaWWRDRO8-jn044o-10" edge="1">
          <mxGeometry relative="1" as="geometry" />
        </mxCell>
        <mxCell id="kkmnMaWWRDRO8-jn044o-23" value="Run Prowler and&amp;nbsp;&lt;div&gt;build React site&lt;/div&gt;" style="edgeLabel;html=1;align=center;verticalAlign=middle;resizable=0;points=[];" parent="kkmnMaWWRDRO8-jn044o-14" vertex="1" connectable="0">
          <mxGeometry x="-0.0534" y="-3" relative="1" as="geometry">
            <mxPoint as="offset" />
          </mxGeometry>
        </mxCell>
        <mxCell id="b14iFvUfpB23LM1vfQa2-5" style="edgeStyle=orthogonalEdgeStyle;rounded=0;orthogonalLoop=1;jettySize=auto;html=1;" edge="1" parent="1" source="kkmnMaWWRDRO8-jn044o-3" target="b14iFvUfpB23LM1vfQa2-4">
          <mxGeometry relative="1" as="geometry">
            <Array as="points">
              <mxPoint x="546" y="460" />
              <mxPoint x="650" y="460" />
            </Array>
          </mxGeometry>
        </mxCell>
        <mxCell id="b14iFvUfpB23LM1vfQa2-6" value="Post webhook to Zapier" style="edgeLabel;html=1;align=center;verticalAlign=middle;resizable=0;points=[];" vertex="1" connectable="0" parent="b14iFvUfpB23LM1vfQa2-5">
          <mxGeometry x="0.4553" y="2" relative="1" as="geometry">
            <mxPoint as="offset" />
          </mxGeometry>
        </mxCell>
        <mxCell id="kkmnMaWWRDRO8-jn044o-3" value="EC2 Instance" style="sketch=0;points=[[0,0,0],[0.25,0,0],[0.5,0,0],[0.75,0,0],[1,0,0],[0,1,0],[0.25,1,0],[0.5,1,0],[0.75,1,0],[1,1,0],[0,0.25,0],[0,0.5,0],[0,0.75,0],[1,0.25,0],[1,0.5,0],[1,0.75,0]];outlineConnect=0;fontColor=#232F3E;fillColor=#ED7100;strokeColor=#ffffff;dashed=0;verticalLabelPosition=bottom;verticalAlign=top;align=center;html=1;fontSize=12;fontStyle=0;aspect=fixed;shape=mxgraph.aws4.resourceIcon;resIcon=mxgraph.aws4.ec2;" parent="1" vertex="1">
          <mxGeometry x="507" y="360" width="78" height="78" as="geometry" />
        </mxCell>
        <mxCell id="kkmnMaWWRDRO8-jn044o-7" value="" style="shape=image;verticalLabelPosition=bottom;labelBackgroundColor=default;verticalAlign=top;aspect=fixed;imageAspect=0;image=data:image/png,iVBORw0KGgoAAAANSUhEUgAAAoAAAAFACAYAAAAszc0KAAAAAXNSR0IArs4c6QAAAH5lWElmTU0AKgAAAAgAAwESAAMAAAABAAEAAAExAAIAAAAhAAAAModpAAQAAAABAAAAVAAAAABBZG9iZSBQaG90b3Nob3AgMjMuMSAoTWFjaW50b3NoKQAAAAOgAQADAAAAAQABAACgAgAEAAAAAQAAAoCgAwAEAAAAAQAAAUAAAAAASvNLMgAABBRpVFh0WE1MOmNvbS5hZG9iZS54bXAAAAAAADx4OnhtcG1ldGEgeG1sbnM6eD0iYWRvYmU6bnM6bWV0YS8iIHg6eG1wdGs9IlhNUCBDb3JlIDYuMC4wIj4KICAgPHJkZjpSREYgeG1sbnM6cmRmPSJodHRwOi8vd3d3LnczLm9yZy8xOTk5LzAyLzIyLXJkZi1zeW50YXgtbnMjIj4KICAgICAgPHJkZjpEZXNjcmlwdGlvbiByZGY6YWJvdXQ9IiIKICAgICAgICAgICAgeG1sbnM6eG1wTU09Imh0dHA6Ly9ucy5hZG9iZS5jb20veGFwLzEuMC9tbS8iCiAgICAgICAgICAgIHhtbG5zOnN0UmVmPSJodHRwOi8vbnMuYWRvYmUuY29tL3hhcC8xLjAvc1R5cGUvUmVzb3VyY2VSZWYjIgogICAgICAgICAgICB4bWxuczp4bXA9Imh0dHA6Ly9ucy5hZG9iZS5jb20veGFwLzEuMC8iCiAgICAgICAgICAgIHhtbG5zOnRpZmY9Imh0dHA6Ly9ucy5hZG9iZS5jb20vdGlmZi8xLjAvIj4KICAgICAgICAgPHhtcE1NOkRvY3VtZW50SUQ+eG1wLmRpZDozRjlFQkZGQTg3NzMxMUVDQUY1MzlEM0E0QzI0Njg0QjwveG1wTU06RG9jdW1lbnRJRD4KICAgICAgICAgPHhtcE1NOkluc3RhbmNlSUQ+eG1wLmlpZDozRjlFQkZGOTg3NzMxMUVDQUY1MzlEM0E0QzI0Njg0QjwveG1wTU06SW5zdGFuY2VJRD4KICAgICAgICAgPHhtcE1NOkRlcml2ZWRGcm9tIHJkZjpwYXJzZVR5cGU9IlJlc291cmNlIj4KICAgICAgICAgICAgPHN0UmVmOmluc3RhbmNlSUQ+eG1wLmlpZDozRjlFQkZGNzg3NzMxMUVDQUY1MzlEM0E0QzI0Njg0Qjwvc3RSZWY6aW5zdGFuY2VJRD4KICAgICAgICAgICAgPHN0UmVmOmRvY3VtZW50SUQ+eG1wLmRpZDozRjlFQkZGODg3NzMxMUVDQUY1MzlEM0E0QzI0Njg0Qjwvc3RSZWY6ZG9jdW1lbnRJRD4KICAgICAgICAgPC94bXBNTTpEZXJpdmVkRnJvbT4KICAgICAgICAgPHhtcDpDcmVhdG9yVG9vbD5BZG9iZSBQaG90b3Nob3AgMjMuMSAoTWFjaW50b3NoKTwveG1wOkNyZWF0b3JUb29sPgogICAgICAgICA8dGlmZjpPcmllbnRhdGlvbj4xPC90aWZmOk9yaWVudGF0aW9uPgogICAgICA8L3JkZjpEZXNjcmlwdGlvbj4KICAgPC9yZGY6UkRGPgo8L3g6eG1wbWV0YT4KDKv3nAAAQABJREFUeAHt3QmAHEW9+PGq7tndHNwEUUj2ynKJF4LKKQERFEXk+UDB26eCAh7P66lPDf49EblEVFAEEUTCJaccgYAgIkTEZ4CE7GZ3k0AgCYEQNrs7013/X02yyexkju6entmemW/rkpnuOj89s/3b6q5upVgQQAABBBBAAAEEEEAAAQQQQAABBBBAAAEEEEAAAQQQQAABBBBAAAEEEEAAAQQQQAABBBBAAAEEEEAAAQQQQAABBBBAAAEEEEAAAQQQQAABBBBAAAEEEEAAAQQQQAABBBBAAAEEEEAAAQQQQAABBBBAAAEEEEAAAQQQQAABBBBAAAEEEEAAAQQQQAABBBBAAAEEEEAAAQQQQAABBBBAAAEEEEAAAQQQQAABBBBAAAEEEEAAAQQQQAABBBBAAAEEEEAAAQQQQAABBBBAAAEEEEAAAQQQQAABBBBAAAEEEEAAAQQQQAABBBBAAAEEEEAAAQQQQAABBBBAAAEEEEAAAQQQQAABBBBAAAEEEEAAAQQQQAABBBBAAAEEEEAAAQQQQAABBBBAAAEEEEAAAQQQQAABBBBAAAEEEEAAAQQQQAABBBBAAAEEEEAAAQQQQAABBBBAAAEEEEAAAQQQQAABBBBAAAEEEEAAAQQQQAABBBBAAAEEEEAAAQQQQAABBBBAAAEEEEAAAQQQQAABBBBAAAEEEEAAAQQQQAABBBBAAAEEEEAAAQQQQAABBBBAAAEEEEAAAQQQQAABBBBAAAEEEEAAAQQQQAABBBBAAAEEEEAAAQQQQAABBBBAAAEEEEAAAQQQQAABBBBAAAEEEEAAAQQQQAABBBBAAAEEEEAAAQQQQAABBBBAAAEEEEAAAQQQQAABBBBAAAEEEEAAAQQQQACB+hfQ9d8FeoAAAvUm8KV73vZezzifVEZN1tr49db+UO2V37KZUaNeeGZIZdK+p41ar7QZkr4/72i12lN6QCkz4LekBvyP7to/R8/xQpVPYgQQQCCCQCpCHrIggAACFQl4RnVrZY5yW51Ug4d/SmvpaUrCPIn2sj9Wzmz4v0S+no0PZUvGyXjD6tKlfR+8ZP8nUsp5yJ+sH9ar00smtXhrLzp5froicDIjgAACeQIEgHkgvEUAgeoLOBL0GGVkPMxIACjRUAMvEv8p6Wf2x8i/St5vXOwr+zs4ZQRE3mwl/0yTF2822nxUj5q02jr1+Kh2b/v47w6Y5yn3ie6+I5bNnj27sUdMx3T4FwEEqiqw+VdRVauhcAQQQGCzwH/f/bbPSSj0I+04kxs/ANRy6tdTzy9fr7y0LyOCmx02vZJ1drUdIbSLHTW0Kxx5L6OkNp+nHPV3GS29XTvqnqEW8/CcEx5cn03MfxBAAIEIAvIHJwsCCCCAQBIFbHDsjcqAn8SBrqsPaJ3kzHaUvnlr37nxE1cdePrHrp71yiS2mzYhgEDyBQgAk7+PaCECCDS7gAyX+nLSPDMiI4iO3tpNOUfI+OCPHC99639dfdBpH7nubTs2OxH9RwCBcAIEgOG8SI0AAghMqEB2VNCeSlZqinadfeR08U9bRkfv/NRVB7/70zftO2VCG0flCCBQNwIEgHWzq2goAgggsFnAyKigDQblusBW7ap9jKuv80enXPSxqw98w+ZUvEIAAQQKCxAAFnZhLQIIIFA3Ahsn0rSkUs4HW1332k9fc8hpH7t+1nZ10wEaigACNRcgAKw5ORUigAAC1RHIzjJ2dbdOOT9rMf61n7p+FqOB1aGmVATqXoAAsO53IR1AAAEENgvYySL2RtOplD7c0d5VJ1/71vfLvQP5Xb+ZiFcIICAC/FLgY4AAAgg0mEB2oogEglo7e2hXX/rsPvO+8cWrD5jcYN2kOwggUIEAAWAFeGRFAAEEkiyw8drASTIkeMZwW8vZp996yE5Jbi9tQwCB2gkQANbOmpoQQACBiRGQoUB56sopXiZ13mduftf2E9MIakUAgSQJEAAmaW/QFgQQQKAKAsbeM0YWp0WfqNXQ70+5flZndgX/QQCBphUgAGzaXU/HEUCgmQRsEOhnfOW46mgJBH9+ynUHvqKZ+k9fEUBgvAAB4HgP3iGAAAINK2AHAn25ebTW5mi3re3Cr97/nq0btrN0DAEESgoQAJbkYSMCCCDQYAL2bLD8yCPkjnv5xbU/+ew9s7ZqsB7SHQQQCCBAABgAiSQIIIBAwwloORuccj7qrFefl9PD8mhhFgQQaCYBAsBm2tv0FQEEENgokL1FjFaTnBbnm1+444h3AYMAAs0lQADYXPub3iKAAAKbBOxTQ7TSk43xf3ja7bP23LSBFwgg0PACBIANv4vpIAIIIFBcwLMzg1Pua7TRZ3A9YHEntiDQaAIEgI22R+kPAgggEFIgGwQ6zgnOiPOhkFlJjgACdSpAAFinO45mI4AAAnEKGJka7Gjz1dPnvnNmnOVSFgIIJFOAADCZ+4VWIYAAArUVkFvDOI7T5fjpM2cvOL61tpVTGwII1FqAALDW4tSHAAIIJFRgw81g/Le/sHz1+xPaRJqFAAIxCRAAxgRJMQgggEC9CxjPKLfF3VrOBX/qq/cfxFNC6n2H0n4ESggQAJbAYRMCCCDQbAKevTWMo9+8fqRtVrP1nf4i0EwCBIDNtLfpKwIIIFBGwN4g2m1x2hyjTzr91nduUyY5mxFAoE4FCADrdMfRbAQQQKBaAulRT6VSznFtLelDqlUH5SKAwMQKEABOrD+1I4AAAskT8KVJjmrzXHXSF/96wOTkNZAWIYBApQIEgJUKkh8BBBBoQAEv7cudAc0x6uWpPQ3YPbqEQNMLEAA2/UcAAAQQQKCAgNwXUJ4TvLXS5rgCW1mFAAJ1LkAAWOc7kOYjgAACVRVw9DGz75k1qap1UDgCCNRcgACw5uRUiAACCNSHgJFRQGXMXi95LpNB6mOX0UoEAgsQAAamIiECCCDQjALOZF+ro5qx5/QZgUYWIABs5L1L3xBAAIEKBZyUzAd2nP2/+NfjmQ1coSXZEUiSAAFgkvYGbUEAAQSSKGBMuz+86nVJbBptQgCBaAIEgNHcyIUAAgg0hYC9DlB+dnCU+/qm6DCdRKBJBAgAm2RH000EEEAgikD20XApPVXuCfjGKPnJgwACyRQgAEzmfqFVCCCAQGIEnBa5DFCr7l898umWxDSKhiCAQEUCBIAV8ZEZAQQQaAIBX8b/jN5p8UuLdmyC3tJFBJpCgACwKXYznUQAAQSiCxj7bGCldsgYTQAYnZGcCCRKgAAwUbuDxiCAAALJE/BlBFAeDLyjo93tk9c6WoQAAlEECACjqJEHAQQQaCYBG/9pNcXLqG2bqdv0FYFGFiAAbOS9S98QQACBWASMclNay0yQHWIpjkIQQGDCBQgAJ3wX0AAEEEAg2QL2XoCOq+U//jbJbimtQwCBoAIEgEGlSIcAAgg0sYDjyuHCqKlNTEDXEWgoAQLAhtqddAYBBBCojoDJPhJET5ltZnPcqA4xpSJQUwG+yDXlpjIEEECgjgW0cRbMWSDnglkQQKDeBQgA630P0n4EEECgZgIcMmpGTUUIVFmAb3OVgSkeAQQQaBQBx5iRq4+fs+G20I3SKfqBQJMKEAA26Y6n2wgggEAYAXve17hqSG4GI3OCWRBAoN4FCADrfQ/SfgQQQKDKAhL0KS/jK984a6tcFcUjgECNBFI1qodqEEAAAQTqVkArP2MfB2JeqNsu0HAEEBgnwAjgOA7eIIAAAghsISAjgMZTo9r4a7bYxgoEEKhLAUYA63K30WgEEECgdgL2FLDv6hfdlHmxdrVSEwIIVFOAEcBq6lI2Aggg0AAC2rERoHlh/csEgA2wO+kCAlkBAkA+CAgggAACJQVsAKi1fm6rrdLPlkzIRgQQqBsBAsC62VU0FAEEEJgYAfsYOPnfsjMPemDdxLSAWhFAIG4BAsC4RSkPAQQQaCCB7C1gRn1Pbv+3UHEPwAbas3Sl2QWYBNLsnwD6jwACCJQSsBGgMmuUNv8slYxtCCBQXwKMANbX/qK1CCCAQE0FNsR/apWfcubXtGIqQwCBqgoQAFaVl8IRQACB+hbw5cm/2lH/OO/guwbruye0HgEEcgU4BZyrwWsEEEAAgfECxozIHOB7xq/kHQII1LsAAWC970HajwACCFRJIHv6V5s1nsrcVaUqKBYBBCZIgFPAEwRPtQgggEBdCPj6L+ceNq+/LtpKIxFAILAAI4CBqUiIAAIINJeAsd015urm6jW9RaA5BAgAm2M/00sEEEAglIB25fYvRs1XmdTdoTKSGAEE6kKAU8B1sZtoJAIIIFBDAYn93JS9/5+64uyjbl9Tw5qpCgEEaiTACGCNoKkGAQQQqBcBR0b/vFF/oTbqFpkIkj0TXC9tp50IIBBMgBHAYE6kQgABBJpGIBsA+vryf7heX9N0mo4i0GQCjAA22Q6nuwgggEApAbfFUZkRf4XR6vp5h83LlErLNgQQqF8BRgDrd9/RcgQQQCBWAW3P9/omY4y68vy3zX0i1sIpDAEEEiVAAJio3UFjEEAAgYkTkEe+Kd8zi1qNewHX/k3cfqBmBGohwCngWihTBwIIIFAHAhL8DRtXn3/WEXcsqYPm0kQEEKhAgBHACvDIigACCDSKgCO3fTHa3LHi+RW/bZQ+0Q8EECguQABY3IYtCCCAQFMI2Fm/Mvr3rMq4s+ecsGC0KTpNJxFocgFOATf5B4DuI4BAcwtsmPihhnzlf/6Co+9+tLk16D0CzSPACGDz7Gt6igACCIwXkId92FO/vlEXjO740nXjN/IOAQQaWYAAsJH3Ln1DAAEESgik5J5/Xtr/m5tSZ1+03/x0iaRsQgCBBhMgAGywHUp3EEAAgSACbkpu+DxqFrnK/cp5R8x9Nkge0iCAQOMIEAA2zr6kJwgggEAgAe3Is34z/krHMV8975133R8oE4kQQKChBJgE0lC7k84ggAACpQVs8CdP+njOMeoT57/jnltKp2YrAgg0qgABYKPuWfqFAAII5AnY273Io95WG62/+PN3E/zl8fAWgaYSIABsqt1NZxFAoFkFNt7rb7VR+uRfHnMPM36b9YNAvxHYKMA1gHwUEEAAgQYXcO2tXjwzqIz6wi/fc8+1SgYCG7zLdA8BBMoIMAJYBojNCCCAQD0LpFrtbF//cc+oL1983Lzb6rkvtB0BBOITYAQwPktKQgABBBIjoOUmz3bChwR/VzpaH3vxcfcS/CVm79AQBCZegBHAid8HtAABBBCIVUDLZA/l+0Nyovf/TTLOL89977wXYq2AwhBAoO4FCADrfhfSAQQQQGCDQPYWL0ru8uKbJ4xW335hdOcb5pwwx8MHAQQQyBcgAMwX4T0CCCBQZwJazve68lg33/NXaaP/6OnUT37zH3cP1Fk3aC4CCNRQgACwhthUhQACCMQt4MokDz8tg34Zc6cx+lcXH38ft3iJG5nyEGhAAQLABtypdAkBBBpfIHtfP3mkh5c2f9aO+d3w0OQbL//IHS83fs/pIQIIxCFAABiHImUggAACNRCwM3vVhns3ZORZvn8xKf3rVGZ07q9PeujZGlRPFQgg0EACBIANtDPpCgIINJaADfjsSJ/cuNk+wk1O9Ko12lf3K+X9Qm/lPvTbY+9/qbF6TG8QQKBWAgSAtZKmHgQQQKCMwNi9+xzXkXv4SZg3KtM6fLNcab1I1tztZ9SNl37sgQVlimEzAgggUFaAALAsEQkQQACBGATs6Vs7mJf91/5nw2t76xYb7NmZvF7aV8YzK2VKxzJ5Zu9SV+mHlfbvGdrnpYfn7L1gNJuJ/yCAAAIxCBAAxoBIEQgggEBRgQ2xnlG+nMC1/1VqWO7UNyLp18qKVSqj7Aif/Kh+7ThPymN6nzYjo8/8/uT5zxQtkw0IIIBAhQIEgBUCkh0BBBAoJZC9js9xlrVOaf36yJrRfuU6oxIADmeUHtIt6dFWVw+tGc6sv+nk+UOlymEbAgggEKcAAWCcmpSFAAIIFBDQrhra4VWT/nrWB+5bUmAzqxBAAIGaC2y4oUDNq6VCBBBAoIkE5II+z5cwkAUBBBBIiAABYEJ2BM1AAAEEEEAAAQRqJUAAWCtp6kEAAQQQQAABBBIiQACYkB1BMxBAAAEEEEAAgVoJEADWSpp6EEAAAQQQQACBhAgQACZkR9AMBBBAAAEEEECgVgIEgLWSph4EEEAAAQQQQCAhAgSACdkRNAMBBBBAAAEEEKiVAAFgraSpBwEEEEAAAQQQSIgAAWBCdgTNQAABBBBAAAEEaiVAAFgraepBAAEEEEAAAQQSIkAAmJAdQTMQQAABBBBAAIFaCRAA1kqaehBAAAEEEEAAgYQIEAAmZEfQDAQQQAABBBBAoFYCBIC1kqYeBBBoZgG/mTtP3xFAIHkCBIDJ2ye0CAEEGklAK6WVftmokUwjdYu+IIBAfQsQANb3/qP1CCCQcAEJ/pRRasRxWr2EN5XmIYBAEwkQADbRzqarCCAwAQLZ37LmBSelRiagdqpEAAEECgoQABZkYSUCCCAQj4CWU8AyBPjCy2uG0vGUSCkIIIBA5QIEgJUbUgICCCBQVEBLBGiUWbnz1J71RROxAQEEEKixAAFgjcGpDgEEmkxgwySQFd+ZdSmngJts19NdBJIsQACY5L1D2xBAoO4F/IxvZwGvyA4E1n1v6AACCDSKAAFgo+xJ+oEAAokT0I5W3qgZlQhwaeIaR4MQQKCpBQgAm3r303kEEKimgLa/YbVarZSzqpr1UDYCCCAQVoAAMKwY6RFAAIGAAnYEUO4BuHI0s25lwCwkQwABBGoiQABYE2YqQQCBZhSwM4Dl/0+P7jBMANiMHwD6jECCBQgAE7xzaBoCCNS3gJfx5Q4wZtFF+83nHoD1vStpPQINJ0AA2HC7lA4hgEASBLKnfz3zotHq70loD21AAAEEcgUIAHM1eI0AAgjEJJCdAKLUKnkE3MMxFUkxCCCAQGwCBICxUVIQAgggkCMgsz9kWXT2IXOfylnLSwQQQCARAgSAidgNNAIBBBpNwPdNWhv/PunXhlCw0TpIfxBAoK4FCADrevfReAQQSKKAzPy1Yd+LnjY3JLF9tAkBBBAgAOQzgAACCFRH4J9Pr5q2uDpFUyoCCCBQmQABYGV+5EYAAQQKCsg9AK+Zc8Icr+BGViKAAAITLEAAOME7gOoRQKCxBLKnf5VaoX3vz43VM3qDAAKNJEAA2Eh7k74ggMCEC7itjp31ccPoSNuKCW8MDUAAAQSKCBAAFoFhNQIIIBBWwN782c+YNa5O/e5nR982EjY/6RFAAIFaCRAA1kqaehBAoOEFUi2O8j1zm5N66d8N31k6iAACdS1AAFjXu4/GI4BAUgTs6F8m7aWV8a868+AHXkpKu2gHAgggUEiAALCQCusQQACBkAJuSk7/euYRNbnlgZBZSY4AAgjUXIAAsObkVIgAAo0mYJ/7mxk1o0rpq8858PbnG61/9AcBBBpPgACw8fYpPUIAgZoL2Ed/qHneSMslNa+aChFAAIEIAqkIeciCAAIIILBRwN73zxizXm79cr7M/F0LDAIIIFAPAowA1sNeoo0IIJBcgezgn7l2+artufFzcvcSLUMAgTwBAsA8EN4igAACQQW0KxM/fPW0o9zv89i3oGqkQwCBJAgQACZhL9AGBBCoOwF76ld+PNeoH21974GL6q4DNBgBBJpagACwqXc/nUcAgagC9pFvfkZduvXQ5N/Mnj3bj1oO+RBAAIGJEGASyESoUycCCNS1gCtP/PDS/oBS3jmzj7lpqK47Q+MRQKApBQgAm3K302kEEIgqYJ/44WX8l2Xu7znnHH7P41HLIR8CCCAwkQKcAp5IfepGAIE6FDBy2xf9+21nHfIzabzc/YUFAQQQqD8BAsD622e0GAEEJkggJad+jVH3eqnUt2ZrrvuboN1AtQggEIMAAWAMiBSBAAKNL2AnfWQy5qG2lPrEz95628rG7zE9RACBRhbgGsBG3rv0DQEEYhFwUzLyl/YXyp1fvvCjQ+7qi6VQCkEAAQQmUIARwAnEp2oEEEi+gJPKTvpY7fj6c2cfdtffkt9iWogAAgiUFyAALG9ECgQQaFIBR570YTyzRvvmmz952513NCkD3UYAgQYUIABswJ1KlxBAoHIBG/z5GbNWpvl+++wj5v6q8hIpAQEEEEiOANcAJmdf0BIEEEiIgJs97auWGcecfu5hc29ISLNoBgIIIBCbACOAsVFSEAIINIJAdsKHpxeatP40wV8j7FH6gAAChQQYASykwjoEEGg6AS1TfB1Xnu/rmSfltO+Hzz3qzkeaDoEOI4BA0wgwAtg0u5qOIoBAMQH7eDel7GxfM9dX6sRzDiP4K2bFegQQaAwBAsDG2I/0AgEEIgq48nQP5ZthY8zFKd3yoXMPu/OfEYsiGwIIIFA3AgSAdbOraCgCCMQtkJKne8hM38eMo0/a9r6DT/nJYbeuiLsOykMAAQSSKMA1gEncK7QJAQSqKqDlT195pq+RR7vd7I3qb5x/1B3/VurOqtZJ4QgggECSBAgAk7Q3aAsCCFRVwF7rJ6d6lfHNcq3cM1NrX/7tOcc+8FJVK6VwBBBAIIECBIAJ3Ck0CQEE4hWwgd/Gp3qslrket2SU+5PzD7OjfiwIIIBAcwoQADbnfqfXCDSFgL21i53kkcn46UzaPOQqdc7Zh991XVN0nk4igAACJQQIAEvgsAkBBOpXwAZ+ngR+6VH/Ju2p342MDN/3i3ffv6Z+e0TLEUAAgfgECADjs6QkBBCYYAE74mdP9/qen/bSEvhl9GVOS/qvP337vFUT3DSqRwABBBIlQACYqN1BYxBAIIzAWMAn8zrsxI5RZdQq3/dvM657ZWpYPXTWUXe8HKY80iKAAALNIkAA2Cx7mn4i0CACYxM67K1cMiO+J4N+zypPLZDJHbcZX/3pnCPm9jVIV+kGAgggUDUBAsCq0VIwAghULGBP6cown53Ba39khE+lR7whzzdL5WW/Ms6Dxuj7lq7e5r45J8zxKq6PAhBAAIEmESAAbJIdTTcRSJKAUdqVYC77BF6J8OxjeLM/2X9krV1l/5MZsTGdWZEZNb3yVkb59OPaN/+S/APbuZnB2YfPyySpX7QFAQQQqBcBAsB62VO0E4FGEjD+eokBX/A91SIjeUNKm2Ft1FpfablPn/+M4+vlxvGWyfteJ6Oe9lItazy1/oULD5u3rpEY6AsCCCAwUQIEgBMlT70INLFA67bOH9a/rOaajOdP9tz1Xsvk0ZS3Pm2Ghvz0Tn5mXeto5qL95tvRPYkPWRBAAAEEEEAAAQQQQAABBBBAAAEEEEAAAQQQQAABBBBAAAEEEEAAAQQQQAABBBBAAAEEEEAAAQSsgL3ZAgsCCCCAAAJbCPT09OzkjXpvcB0z6nna3yJBzgrX8dctHhh4NGcVLxFAIMECBIAJ3jk0DQEEEJgogZ729r2Ndm6R+juCtkHuz/jzvoEln5P0JYPFoOWRDgEEqicgD1NiQQABBBBAYLyA0fprsiZw8Gdza2VO7e7oeOf4kniHAAJJFCAATOJeoU0IIIDAhAvoGVGaIKeV3hIlH3kQQKC2AgSAtfWmNgQQQKBOBEykx+zJs5u5eXed7GGa2dwCBIDNvf/pPQIIIBC3AAFg3KKUh0AVBAgAq4BKkQgggAACCCCAQJIFCACTvHdoGwIIIIAAAgggUAUBAsAqoFIkAggggAACCCCQZAECwCTvHdqGAAIIIIAAAghUQYAAsAqoFIkAAggggAACCCRZgAAwyXuHtiGAAAIIIIAAAlUQIACsAipFIoAAAggggAACSRZIJblxtA2BJAn09PS0ZTIZ3d/fn5Z2eUlqW9i27LHHHlubl0zbcGrY6x7sfmmemhfppr9h6y2X3hrbNI3iXK6/bK9MYOzzYktZvHjxSGWlTWxu6cs2zpDTmrTv5MSqUHs1BeSpPSwINIZAz649000q/Saldav2xz+NwDjGkQ/7mun9nXODBDv77rtvy/PPPb+/65q3GV/tY7Rql/xTlDztXv6XltLXybrl8vopY8xjynMf7lvW91S1JGdOn9njt/hTipT/4pIlSwaKbNu0emZHx4HK6BOUo+Rf9QrZMEl+bOC3Vvqz0tf6/xzlPyjR7d0DAwPPbMpYhRfZA3c6vbcxzn5K+6+Vp8j2SDU7y8/UrLGtU5zlP2vEvV/uLPykUv58T+tHJQBfYTdHXaZPnz65VbX2mBbZgwEW13WfkeBiZYCkgZLs1tGxV8ZxWoIk9jxv6eDg4JogaXPTdMqS8jzXKfFUDnnWb1ta6zXFPOXzcqf4H5FbbpDXWqszFvf3zw6SNmia7Pfx+ef3cjy1/4bPi9pTvorTcr6TRj4jQ/J+hfw8YYz+p/H1g9X8TnZ3d+8u3337HdpicRxnTW9v79ItNuSt6G7vPlg7/vHaV/vLp9F+/jd9J+X1c9LHBUqb+z1j5lX7O5nXNN42gUCgX4BN4EAX61xgt66ut/q+uVq6YX+Jllqu6h3oP0kSFHtagdvT0fExX+nT5MvxhlIF5W0blgIfk6DlBsfz5ixeurQ3b3ukt3vMmLFLxnEvlsyHy0/Bg42sf0l687+9g/3nF6qke3r3bo7r/UAOJu+T7WW/85LgeTma3iSxw/mLBwb+UajMqOvsfvJ89X6tjA0sdg9fjlkl7fubBC/XtKTTNz+5fPnqMGVIXLSna8wcYXhNiHwrJHD+Tu/gkotC5Nki6e677D7Nbx29UmztvnS3SFBohVFLtaM+JQHV7YU256/be++9W0fWrbtCPovvkD7aOop9zm1W+TyZ55VyLttu2g5fnz9/vgTcm5ckBIC7dXa+wTdGvq/6XdKyveSn7Od3cw/UsKR+WP6AuzblZ65ZtGzZ8pxtkV/u3t7e7WlXPgvmECmktUhBa40yX+wbGLik0PaZM2a+Rmnve9K+YwttL7ButezJse/kowW2swqB0AJhvkyhCycDArUSmNnR+ZjU9bog9cmo09v7Bvvuyk+7IThQv5D1s/K3hXtv1skw4RzP0efKyNy/wuUdn7qno+v3ciD54Pi1Bd/5yvhv7h0cnJ+7tae96wSj/Z/LcXNa7vqAr0flF8RvTMqdLaMZzwXMs0WyWWpWarCz/3ht9Kly0DxoiwTRV8gBXV8qB/cLFy5d+nSQYno6O2dLAPadIGlz02hjMr7vvrqSEaXujq6fSuD737nlBnktgfvZfQNLvhQkrXxePimfF/sHQ6jF06pLRgL7czNNZAAo++lQX6kvyci0BLIq0GhpbtsLvJZRVPN7Cf7PXTQ42Fdge+BVM9s7/ySB23sCZBj2Hf0G+R2wMDdtd2fnx6Vf58i6bXPXB3w9Ip+HX+uU891KvpMB6yJZgwswCaTBd3ATda8zaF/llMuH89PKAWd/16h7ZP2s/G3h3+utZNjl445vHprZ0XWWnCqK8oveVivHCf/1AeuXs33OZ3PTzmzvOt1o88eIwZ8tqlX68RmV8aQfHcfllh30tZziOmJpR/990pErYw7+bBN2lTK/KSOk/5D2fSn3erBi7ZNTduli20qtlxHHlHa9IAf9gsXY084S/P1HwY1lVspI7N/LJBnbLMzmv8behPj3Wd/3XwyRvmpJ7WUcEmBdKkH6PdKZY6SiOII/297t5XtwuqedR2SE/xt2pDRKJ163885TJfjbL2DeSa5vTs5NK79nvi79sqOCUX8ntMnn6FT5Tj44s7Pzvbll8xqBsAIEgGHFSJ9IARmpCj6JwagjZbRvu7GOyAFhHwkMbpL3rxxbF9O/9hTbl7Tn/7VrRpc9XRR6kZFEL2gmOfgfmT1ASQY7EiThY8FTwkHLy0nXKQfP6yTI+ll7e7scSMsvth1yID9Xa/9OSX1A+RwVpZDT/vosk/bm2lOGpUryHedm2T5aKk3xbdoGJJGWSanUmyVjZ4TMy9O+f0eQfF1dXXYE/E1B0uamke/OrVGuM8wtI47XMlr9n3IN74MSYH1UypNmVWXZXkbQvj+8bt1cuTTitWFrWDd1akryyN9FwRZJ+C47Am5T2z9SJLD9QbCcZVN1SyuulyDwvKDfybIlkqDpBAgAm26X02EReGXK33Bxu70uSw4IV8nxJsop0qCYr3Ycc7uMyH0qaIZo6fT0lydNer0caN4pp4PtqeyYF31ai3Lu3X36dBl5K77Yaw7XTZo8Vw7hny+eqhpbzEG+jBzJKbYTi5Uup+Mek4vtA11PV6CMN8kfDp0F1pddJZMSIgaP5sqgwZnrmQ9IQ4JdW7i5xfK3j/+bzW8n5lV3e+d3ZLTaXps5vTYt0Adr178n7CiaTO6QmE7CuOBLz+D0wb2knvdL384Kni1gSqM+16L1fXbkNGAOkiGwSYAAcBMFL5pKQJvsKU0vNWoPfrvXoO+TZUTuIjsKUN26HBn101fYU5ZVqUer13quO+60Vm49Mpr6RntgleGbt+Sur+Hr7ezpZjn1/uVidTq+vrjYtjLrp8gvzMPKpNli84YRIPPOLTaUXzEq1x5eVj6ZUvYUswS2xwdJm5tGIpm/y3WjD+auq/VrO7KstZpd63qlvh21b+bIH2afrmLdjk5JgG3Mr6tXh36N72bGXf5RvboouZEECAAbaW/Sl8ACcuA7VC7Kv0BGqSJf1xW4snEJ9VkSJMlkiGotZl8pOdBp2sgtMHqbQnlntrfvK6Opt8i2kiOEhfLGv878RILArxQqN+MYe1p6UaFt5dY5xhxdLk3+9oGugTfKuj3z1wd4f/fiwcEFAdKptlTqUEk3M0ja3DQyMcdejybzLSZmkeDP/sFy2sTULmN59g8lbX6VvWSiWo0w9rS83qpaxWfL1TrqNYVVbRaFJ1uAADDZ+4fWVU9g1+zF1NUrv2jJEiSdL5Mj3l00QbI3GLktyfX5TeyZMWOm0s6fZH3c11HmVxXivTmzu6PjE/kZZLLrsOz7QCNr+Xll3x0S9pormXlqg8bQv2slOAt8albO434wv60B3j834qevCZCuKknktO/XJDA6vSqFhyxUrp+9MHvpRMh8SUnu+Mp+91gQCCUQ+pdSqNJJjAAChQRkxq5/yR4dHV2FNiZ6nVZz5J509+a20U74MK77B1mXgJG/3JZJeKH0hTIyedD4tfIYF8e5QsZ/1uWvD/B+55RKbVFeiXxyFjc7m7VEkoKb+oYyI7cW3JK3UmY/7yT9DH2KWYLZOcuWLXs+r7iavO2Z0XWknPaNa0JEHG2W2cb6UnuPvzgKq3EZNyxeuiTQRKEat4vqEi5AAJjwHUTzGlZgp4zSF0jvdB318CXX97+e316ZePIjmZEop7kSubTJyOQlMndj06xv20qZDDIg5/9uidJiR/vZ60eD5O1pb3+1pAs921SC0yuefvrpoSB1mEzG3iR5xyBpc9J48tSXwCOMOfkqfpmdeOWYi6SgpB1/XiG3ibHX6iWtXSXMzTrjOjKSyoJAeIE6+qCH7xw5EEi4wNFyirLojNXktV2fmX8TXTltdpjEsBN2DVdAo91lauwZ+WmNyh7s81eXfS/Xjx5ln6VcNqEkkGvMotzIeL3x3MuDlJ9NY/SHAqfdnPB+ecrLo5vf1u5VpiU9W2rrqLDGtOT/mwhLwGbOkp+LZaTVjoI9V2G5h8ks8mpOCqmweeOzay03Ce/ri3Q96/iSeNeMAtWZKdiMkvS5kQVekM69vLGD9jtjbxkT9nYbG7OP/0eG/86QYOKmhQsXvjR+S5XeGfWUjDkultLXy48dNeqRnyCnbhdOGppyrqTdtNjns76warUcfGNa5LFn0ralUtqoBJUtcp3eLhJs2UCh8j9UjfqMnAr+Xe6TUtoH2+ct6+h/TOp4fcge7JoeHn6r5Ck/gqj1scHvGrepFX8O+sSRrq6uPZRvDt6UM+ALsb04YNJYk0l7XyczbysKsOQ7c4k8Zee8Qk/ZsafDVTp9pDzK8cuSruQ9IYt1TGaRf2fPXXedE/Yxg8XKK7s++7nXgxLE2qDWTrDqkp/yE7nku+xOaovv+1e2oSRoNAECwEbbo/QnLoFeORDMkdDjdieTeUrOxWWvlWqVRU6Ddvm+eqvcduMkOchUeLsT3ZNZP2pHAe0psWoutzqO/rFcq/fQ4sWLR8YqkgPmNnIK8UAJgj4r/S1xrzrz9QUrF4y7Zu7FVatOkEDNznCtZFkpB77L5AbNc6asm/J4bh321iaTXHcvGal7n6T5L6lk5woqktul6dmSf1Mf56l5mZmm8xIJOs8LW66j9H9InpIBYPaZsSbwUyPGmuDLtXG/GntT7l+5+P94SdNWLl3e9uXupEk35q2ryVvXV1+Vz5pcbxdpWSGPcfxU72DfzcVyy2dbPk/qil122eX6yS1t35XPzZeKpS2x/pXpVOtnZPv3SqSJYZO5Sz6TZ7UNTX0g53OvOzo6Xil/XR4m13XauwUcWLQiR321Zn84Fm0EG+pZQI5fLAjUv0BPR+dqObDsEENPnpURmx+YlHOZnFp5sUx5jtzS5US5mP7Hki7IKFrB4qTd/9x+2o5vnj9/vh0ByF209OtR2R52hCq3DHvb2u/0DfbLwbD0Ijer/YD0/XxJtVNuShktullOF24KnOy2Wfb5vh39D0cdZbFlyAHuCt/V3xBnGf0ovdibT/tu6kyxOKl0ypJbfeM7b+lb2vfIWCoZkdpZHtn3hLwvP+IylmnDv8tTk9r2KnUAllOJp0hQ/Yvx2Uq/yz5z2LgH5LaxWA67D5Z2LJHTuPo1xdIUWi8B5o9lIs//FNqWu05O798pZR+Ruy7Iayn/DCl/dn5asd5DrB+T9WEDVluU/EHmv0dui/N4frml3ttHr8nnP8JkE7MsNWnSq/P3b/YPpnR6gbhML1VvuW3FjPLyOXIro89KEGt/v0wZt82oG3sH+48dt443CIQUcEKmJzkCjSwwT/veQfKL9fwAwZ918CUwuiKlzCFyQJgfFcYGUS+sXPnmqPlL59M/CBL82TJ6+/uvUr57uLyUoGLTMs/xvFM2vdv4YrB9cFYlwZ8NShcPLPlQkODPVrlo2bLliwf6Pyj5Zm9sQpR/HO14J+dmlNOIz0o/rs9dF/D12Gngoskl+HtP0Y1FNmSfOaz9LxfZPG71wIyBA+RzFyr4kwIC31x6XGUxvJHRyg9LMaGDP9k/zxvPOS5s8GebLIHoDyWAuiB88/V0b/2ovX6zCov+QaEAuUBFfu/Akgtk5N7O8O7bvF0/IH+gnr75Pa8QiCZAABjNjVwNJiB/kd85aWjqMYuXLu0N27WFAwNLPG3eLfnsSFKkxWjXnlKMdbF9kgPIt8IU2ru099+6JXWAjJS9SUb+9u0d6D/cBl/5ZchM2BPz1wV/r38aNCjNL1PynSEjrhfmrw/+Xh/T3d297fj00Z7SIKeB5dR04UVO471KthQ/fVc424a1Wr1XZg/vXSqJ3eZoE2U09K6nBgYif07LtanYdnu9qARikT7jcqnFqXJN5P8VK7vc+vXp9NdkZDt0fuOY/yxXdujtRt0u38n/DZPvqSVL7vO02lf83ibB4KEzBjpmBf3DKUw9pG0+AQLA5tvn9HhLgcczSp2Qcx3OlinKrJGbC6+QoOkjkmx9maQFNzvyy102yKU/sS3PSZ/sxfahn/JgrxG0pyBldPMfkl/Ouo5fsvf9M+rt49cGeyeFPbTdtB2+Hix14VTD6ZGvyBY5DRdp2dlJm0Nzc0o/ZTapejB3XZDX0pcj7SnBQmlTxrE+eYFmoZQF17UZx/lqwS0bV2br1erYUmkKbtPq4oLrq7xSRrhfJ1XsEaGaq7Ij0xEyjmWxt9PR2pws70fG1gX615gD995p760CpQ2W6Dm5944dTd/iO1Uuu/x+eaF3YOBuGwzaa1fLpWc7AkEEUkESkQaBBhZIy4XlJ/cP9NmZvhUtNmjqae/8lYxYfCFsQXJE2EOeptEZZQSyUF0y+vdbOWj0F9pW6Tq579/rpYwZEcrxHa2+VuBax1BF2QO63D7n23IN4bWhMm5MbBz/CHl5Y05e2WX6EnkaxAE564K83NVPpw+WhLfmJ5YbfR8jI5X5q4O/N+r9Mgr446KnPUe9o6R4O8oYZuldPzp6R5gMcaWViTwHi0aEAQczXfb15bJ/KvzjSMsfQsYGgG3B+6R3GZmybndJb/8QimHRF/f3L+mPoSCKQCAWAQLAWBgppI4Frukb7Ls/rvZ7rj7X8f1PyrVZYUcOJskM3ddKO8adgrZHrYhhRLkJLJG7LO3ZP/QQhq1Nqwfk2qd7I1eck3H7adNuklvQPC6r7I2WQy0SmL05P8Owl76uzU19T9bvnL+t1Ht5XNt7ZPu4AFBmL+8gPrNK5QuwzY4Cfk3SfbRQWt8xH5ZrDEMtcv3k5UFvLh2q4ACJ5Q+S/QMkK5BE28DRBtkVLRLcR8lvA9a95CemAFBV7TsZpXPkQSDCX2SgIdAwAnZE6rw4e7PxCRNzo5QpBzp7sMldpHmqNXdF0NdGLioMmjZsOinbns4Lvcgh+A+hMxXJsGEUUd9QZHPJ1WLabYO03ETZR6Jp9cfcdYFea/UOueXIuBmaba57qES70wLlL5VowyjgFtcCdnV1dchs4cNKZS2wbSil/MsLrK/FKjnO6N1qUVHcdcjIZVdcZRptqvadjKuNlNNcAgSAzbW/6W2ugFELnurvfyR3VRyvjaP+HKUcY0x3bj65zktG6M02ueuS8FoCqCgHxbSMjN4bZ/t9o+ZFLG+7Nt22S35eCaoulXVe/voy7zumuG3jR6g2jAqWyRZoc5vMCv58fkrX2MkU4UaYZULPrflPcckvt1rv5UbnU+VzHPk2SdVqV7By/ajXcQYrnlQITKAAAeAE4lP1BAtoYy/+D3vAL9tox2TvdRb6nJMc7Lc8/SjDBmUrrG0CmfyqXhG6SqNWTBkZGQidr0QGmaX5lGyOMummxVf+9vlFy2SQR2Xdffnry733nc2TMbKPiNPmiHJ5gm6Xa99OsjeUzklvPxAn5rwP9lLrXwdLGH8qb50nQZQJe0lE/A2JVmLSvn/RekEuBAoIEAAWQGFVswg4i6rR04zWz8gB7+WwZcuRPXGjffl9kBnAk+VaMhnRCblo/dy/nn02tEmZWmTijlldJk3Bza5rxp22HUsk14qFDpS08o/s7OycZMvwhkZlIkllNwkea4v9V6KPqZ52Pzu2Th5n90ZZKbcECbOYf2+74453h8kRa1p3VAJAHelShljbQWEIIDBOgABwHAdvmkrAhLwtRPVxtq5+FZXVMJpKTZIRwAgHc7Ouspq3zJ3JZGRWp7YzO0MvElhtMQJoC5k8tJWdHTwYrkBtz9VnJznIDONjwuUNktp8bObMmRtGXbVrR/9C/t52Lqt05nWQVhZLI9Y2OBYiFgQQSJJAyF8kSWo6bUGgMgHtmKoclFK+LyNkkUY8RivrUfVzD7nyNNfswFTYunTs1tuObGsvqo90Yb1cb7m2UA/svSBlxmroySpS3vukPLnUTh9VqNwK1+1o0p4N/OTyS3NcyLLWpvzMlSHzxJrc+Cn7uY79UotYG1m0MIdjZFEbNtS7AB/uet+DtD+ygG/iO1WX2wgZ8dhO3suTD0Ivckoz2ctOO+1kR/KGwrfS7GSfXRs+X/EcmUlr7Slzax16cbQu2gdP699KgaFGFuVavSPkubNHSohWndmuWp0oz2o+VtrVHa6z5k8Lly59OlyemFO3qhclck38HzeFei2B/UuF1rMOgUYQIABshL1IHyIJyHDNGyNlLJNJa72nJJFjXrhFrj9bFS5H7VNnTyVqFeW6u1ct23XZK+NssZyOni7lRQkAfWXMi8XaIrfyWSifjTuLbS+43pgeCRbOKrgthpXyYbLX/p0bsijj+86EPPkjr50vyh9FRQPuvLRJejskd265NkkNoi0IxClAABinJmXVmYDZr2fXHhtExLw4h0UpUCtnMEq+WueR26UMRKhza+V4sQbcjqfeEqEdNsvatFIrSuYNGTjJDG4Z3dSvKVlmZRvtiHJHuCL0P5YsXfJAuDzxp5bn1tpRtGURSpbdlL15ss1fix97WcBK+Xlc/gC4Rp67+077bGx5z4JAQwrEekqmIYXoVAML6K2MmzlJOnhmXJ1sb2/fXkby3h6pPG0WRcpX40wymvNElCqNm71O7sYoeQvlkWs4j5EZyREWs2xgYOC5UhkzrrlDrnZ8qmqndEtVHtM2uYOQndFsr9mc6MW24Un52SdkQ/rkTu1HOY5T9T7I6K12RqSeyWrttttuu34iJ82ENCI5ApEFCAAj05GxIQS0OX3PXXf9zZPLl0c5rbkFQYtyPyQX6m+YsbnF1pIr5HZy6rGSKRKyURvn4Ui3JzTqvV3yFIvs01Iq7IuU83rjm1lRipGRVutcclKCPEZ5eGZHx2Uyqve9KHUEyPOonNJ9SALMUwKkjZJkdWq09ZooGauSx+gHlTZ2IkuYZYZN3NvbuzRMJtIigEAwAU4BB3MiVcMK6OmZVEssI4DZW3Vo8/WIVMsmr1//VMS8Nc3muervUmGUCSvbyE2yvxtHYx0vW449LRph8e8Jkkkmg1whwXzst6+xdcvI5R9dP2ODS3uaM/7FqDmLnl6UmGtKfVfdK50sGXQXQJgiT4+RP6hYEECgGgIEgNVQpcy6EpCziJ+Y2d75uYobnfF+KWW8Kko5Mov0L1W4UXKUppTNIyN4z8rIWLRry4z6iMxm/WjZSkok6O7sPEVGzt5TIkmpTUNyo+65pRKMbZNRwH6l9a1j72P8d9gx3jWLli1bLmXeFWO5Y0V5xji/GXuThH/lM7NA2hFhhFufJjfZjnXykL3ut7u7W25OzYJAcwsQADb3/qf3YwJanTOzo+vLY29D/qvldOFFkue4kPk2JzcqtmvjNhdavVfy1JI/Ri7dqIt62rtOiJK/u6PjfVL3eVHybsxzbzawC1iA71fhEWpG3bF46dLebBO0sp+bWBfxeaBvad8jsRZaeWGeTKyQEdXQyytdo34huXTonHkZ7NNauju6LjCp9BOO5z/aM6Mr6h8ReSXzFoH6FCAArM/9RqvjF5DvgvnJzI7OP/TMmDEzaPE2rYxI/UmOT58KmqdAumcyjrmjwPrErvJT2gasUe8v1yrXEF4pAfe3xh6hVq6j2YN3e+e3ZaT0akkb4UkkG2qQCTqhRsY6BjvukWv1/q9c+8Js10ZvasNIJnO75N0QDIYppERa46hLSmyesE2e41whUdzzERrw3p6Ozl9Xch/Jrq6uPSSQvE2C0FPlu7qVjPp3ybOk53S3d787QnvIgkBDCBAANsRupBMxCnzAOO4jMqL3M7mx7/49PT1thcruaW9/tWz/kaR9WEZcKnz8l7lCRqWiXFNXqGk1WSe39nhRrmP7VQWVyRM8zHfloPxQT0fHqXt0dHQVKktO1bXPbO/6tGPUg1qrMyRNJb+z/jV5q61uKlRPsXXz1LyMdtRvi20Pv94sHjbpO8fyLVu2bL0EJJeNvY/h3+XGcW6IoZzYi7CXDhit7Mzk0Iu9TGNpR/9d8izkfcNktp8rueTgx45vHpJ8s/LytmrtX7FbZ2fU2wnlFcdbBOpLgFnA9bW/aG1tBLaTg/JpEuCcpkYzT8n1gU/Ifd6WaW0yEuxNk4PRXvLzahkZKhgchmuiWec7zgXh8iQjdSrTeqHXMmpnsUa67nFjL15nlL4gIzcK7u7oXCS+gxLorRPfSbIPOpTn7y4n/7aWkaPKF61+sGDBgtGwBUnb/iDR6rck3/Zh8+anl5uEX7Eh6Nu8xdPmcgmE/0fWTNm8NtorsfyjDc6j5a5BLtf9qcp4H5Wado5Q26FKOw/IKP118hn5o5PJPLLxOspNRdmRYnnTKX8lHCATjo7OKH2kfE+32ZRgyxfb+EZdO3P6zFm9y3oXb7mZNQg0rgABYOPuW3oWh8CGR3vtJqeOZMAq+/84Ss0t4xdx3BYlt8BavbazTOX093claLPXaFW6TJEg7w0S7L1BmDcum1+Nrang33m9/f1zouSX0dkV8kfAn6RtH4uSPyfPsMm4v895n31pr0mUUapb5PN1fP62kO/T2nd+GzJPTZPLLV2ekxHdb8ktYaJe+2j/6DpR/jg70XNTL8h+WSr7xd682Qb224nhK+RG5e32xtwSDAft267K9W6QWfyH2/YFzUQ6BOpdoJLTKfXed9qPwEQL9KeN+eFEN6KS+vv6+y+W/PdWUkYN8g4Zz/mc1BP9hsLa2H5Wthh1e7FRJplsUnH5Mio2rx6eXNE7uOTXcio41Kn4IvDbSYz3Wtl2uPy8Q372l5/uDU9lkVfhlr1lZPLqPfbYY+tw2UiNQP0KEADW776j5XUuIJMBPjc4OLimzrvhKc/9pIy1RLm4vyZdl9Hbr/Qt66toIkfvwMDfJNh4uJIGy/4uOjljh512mCejVxW1UVVjxnIlHS6e18h9ak6Wzf3Fk0zIlkMzw6O2XSwINIUAAWBT7GY6mTgBrc5cPLgkjlGQCe9adlTL1x+XhkQfYatWL+Q2K4sHBi6MoXi/wgCrN3fyR3577KPHKpxs0j9lZOiW/HKT+l4exfeMPObt/dK+l5LURqP81yepPbQFgWoKEABWU5eyESgscINcj/aNwpvqc+3ipUtuVEZ/JmGtv27S1Kmnx9WmET9tH61mrzeLsJg/5E/+yC9ELge4StZFnA1uLq+XG4mP9Vuuff27jKqeIKPHL4+tS8C/tyWgDTQBgZoIEADWhJlKENgkcOukoakflnfepjUN8kKu7bpow33W7HSZiV3kfoHXyp2HPxhl1m+xlksAJ6e5TZQbYA8b1728WLlj6+2omARD1429D/HvsPb9y0KkT0xS+UPozxIEvk8aFDHwjbMr+vt9AwNXxlkiZSGQZAECwCTvHdpWA4Hsxf19NahIjnPmmqnD609YsHJBVZ4vW4s+lKsje7pVq5Mk3dpyaau1XWZ//rxtqyknyeTa4djrMOZSKTNk8K7nyq1ZFgVriwl/nzyZXLLpySLBKklUqsX9/bcb33m7NOqJCWrYiHw3T+sdWPK/E1Q/1SIwIQIEgBPCTqVJEdDGuU9++f+ntKea1yLJiJj+vgRHJ9Tbaboo+0lGda5Sxj9c+jw/Sv4K8rwgUfYpfQNLTotz5C+3Pb2Dg7ZPf8ldV/a1Dh7UyWfE3rD4b2XLzEkgT1W5KOdtXb60j67TLalD5UktW9wmp8odWiizp98h7j+vcj0Uj0DiBAgAE7dLaFBNBbS/jfzyf1QOPB+QeqsxarVAgpKjN44uhD81qpXcgzj8YoyJlC98TYVz2EBp0tCUWRIE/kBSDBVOFevaW7XxD5bgs5KnkwRqUO6j3MplkFO6S9aPjt5RLl3Odl9OX/8m533Jl1L+k05Ly9ySiaJu1LotStaon73FixevlFOwHxZfOzkk4IhplBbKp9KYjB0pbsmkD5IRyHlBS/Hlfj2SO9J3S25MzfE2KDTpaiLAB7ImzFSSdAE58NwqI4FyLzET19MAlsvIwjdSk9oOyF7nFAFADohpybYiQlZ5YIIaiJIvzjz2VLcEvt+UwOzNcrC1Qc36OMvfWNbfJHh/X+9A/7sWDw4uqEL5WxTpTm6VZz8Hew6yPGXi0qeffjpUADzspe11gM9uUXGBFeJ6iXxORgpsqniVBEmRnigiEVJ/JZXL7Pir5Xuzn9wr8ItSTtyBoJ2pfoPnOgfZkeInly9fHaat22+/vd2Xka5XlIr7w9RFWgSqLUAAWG1hyq8bARkJfFC3tBwoB7BfSKMjXj9mHpHA77/lFhf7ysjCDxcuXFjJqWU5Zhh7XVKoewXKUxLuSLW1XZsUeBuYycH2k44y+8royfelXY9X2DZ7qlee6mFkZLX/QAneo0yciNyE7D6V4F4KKPkZkc/BnS2T284JW5GdbKJ9/WnJVyY40bekJjEIDYMAAARNSURBVLX+Mmz5gdP7zs/kuxBqhq797KmWFtk3lS3WWG4yfq5MmNpX/jD7kJR2q/xUMkIvfxCZC6SsN8ln5rjsDOQITczersfo2ZK15L7fsmhz1+ShrW7ccj1rEJg4Afl+syBQ/wI9HZ2r5fzqDmF7IgeEUyXwuzA/X2dn556uMR+U9TIqqHeTf7fNTyMHlHVyum6lnBT6t9wB7wFlnLn2WqYt01W2pmfGjJkyi/RNEhS0SEmlTiPL2TN/udy0eJ6ksyMdiVz23nvv1uF16/YzRh8hv4DeKOfj9hbjadLYreUn//SaHTW0I1F9Mtr1qGPUvY6f/mv+M2Ble82Xnvb2veU5zq9zfG0fqblpv8gLR/q1RrW6d1QyOtfd3d3uZMz+UrY9FbupfHmtfeU93Tc4eHfeenkb7yJ9fLXSeh/5bNvBgtw25Fckl9OalTLafadsCDlJJr+owu/lUW0zdNrfXz4vB8io72uFoVtS2u9l/jOUZZTOyB9NzkLZ9k8Zhb3XbXUfkn1RSQA5rlHd07tfqx1zgHLMiHwvS/VXNvurt5827U4bPI4rhDcITLAAAeAE7wCqj0cg7gAwt1U9u/ZMV6n0DN+YzQcak1rb4nirRrR+piqzTXMb0OCvbUCYfvHFndItLdMk6J4s11lNdRwJfXx/nUmlXpLXK+I8eDc4Z9N0L/uHxPDwdmbEbKtaZUzYLqNyN8o2/eJ22223hoCraT4KdDSiAAFgRDiyJUugmgFgsnpKaxBAAAEEEKhcgGsAKzekBAQQQAABBBBAoK4ECADranfRWAQQQAABBBBAoHIBAsDKDSkBAQQQQAABBBCoKwECwLraXTQWAQQQQAABBBCoXIAAsHJDSkAAAQQQQAABBOpKgACwrnYXjUUAAQQQQAABBCoXIACs3JASEEAAAQQQQACBuhIgAKyr3UVjEUAAAQQQQACBygUIACs3pIQECMgzqqLe1DxqvgT0miYggAACCCAQTYAAMJobuZInECmQM1pnktcVWoQAAggggEB1BQgAq+tL6TUSkIfD3xylKvkCPBQlH3kQQAABBBCoZ4FUPTeetiMwJuC0tJxqRjOr5UTwcbJu67H1Rf81apXW+syn+pf8s2gaNiCAAAIIIIAAAggggAACCCCAAAIIIIAAAggggAACCCCAAAIIIIAAAggggAACCCCAAAIIIIAAAggggAACCCCAAAIIIIAAAggggAACCCCAAAIIIIAAAggggAACCCCAAAIIIIAAAggggAACCCCAAAIIIIAAAggggAACCCCAAAIIIIAAAggggAACCCCAAAIIIIAAAggggAACCCCAAAIIIIAAAggggAACCCCAAAIIIIAAAggggAACCCCAAAIIIIAAAggggAACCCCAAAIIIIAAAggggAACCCCAAAIIIIAAAggggAACCCCAAAIIIIAAAggggAACCCCAAAIIIIAAAggggAACCFRV4P8DZ3rC5O4H7wgAAAAASUVORK5CYII=;" parent="1" vertex="1">
          <mxGeometry x="430" y="460" width="198" height="99" as="geometry" />
        </mxCell>
        <UserObject label="github.com/prowler-cloud/prowler&#xa;github.com/lfglance/prowler-ui" link="https://github.com/prowler-cloud/prowler" id="kkmnMaWWRDRO8-jn044o-8">
          <mxCell style="text;whiteSpace=wrap;" parent="1" vertex="1">
            <mxGeometry x="450" y="559" width="250" height="40" as="geometry" />
          </mxCell>
        </UserObject>
        <mxCell id="UEzPUAAOIrF-is8g5C7q-77" value="Scan Results Bucket" style="outlineConnect=0;fontColor=#232F3E;gradientColor=none;fillColor=#277116;strokeColor=none;dashed=0;verticalLabelPosition=bottom;verticalAlign=top;align=center;html=1;fontSize=12;fontStyle=0;aspect=fixed;pointerEvents=1;shape=mxgraph.aws4.bucket_with_objects;labelBackgroundColor=#ffffff;" parent="1" vertex="1">
          <mxGeometry x="870" y="559" width="75" height="78" as="geometry" />
        </mxCell>
        <mxCell id="kkmnMaWWRDRO8-jn044o-11" style="edgeStyle=orthogonalEdgeStyle;rounded=0;orthogonalLoop=1;jettySize=auto;html=1;" parent="1" source="kkmnMaWWRDRO8-jn044o-10" target="UEzPUAAOIrF-is8g5C7q-77" edge="1">
          <mxGeometry relative="1" as="geometry" />
        </mxCell>
        <mxCell id="kkmnMaWWRDRO8-jn044o-13" value="&lt;span style=&quot;font-size: 12px; background-color: rgb(251, 251, 251);&quot;&gt;Generate Pre-Signed URL to&amp;nbsp;&lt;/span&gt;&lt;div style=&quot;font-size: 12px; background-color: rgb(251, 251, 251);&quot;&gt;React site&lt;/div&gt;" style="edgeLabel;html=1;align=center;verticalAlign=middle;resizable=0;points=[];" parent="kkmnMaWWRDRO8-jn044o-11" vertex="1" connectable="0">
          <mxGeometry x="-0.3706" y="5" relative="1" as="geometry">
            <mxPoint x="32" y="76" as="offset" />
          </mxGeometry>
        </mxCell>
        <mxCell id="kkmnMaWWRDRO8-jn044o-10" value="prowler-ui&amp;nbsp;&lt;div&gt;React Site&lt;br&gt;Build Artifact&lt;/div&gt;" style="outlineConnect=0;fontColor=#232F3E;gradientColor=none;fillColor=#277116;strokeColor=none;dashed=0;verticalLabelPosition=bottom;verticalAlign=top;align=center;html=1;fontSize=12;fontStyle=0;aspect=fixed;pointerEvents=1;shape=mxgraph.aws4.object;labelBackgroundColor=#ffffff;" parent="1" vertex="1">
          <mxGeometry x="710" y="360" width="78" height="78" as="geometry" />
        </mxCell>
        <mxCell id="b14iFvUfpB23LM1vfQa2-2" value="" style="shape=image;verticalLabelPosition=bottom;labelBackgroundColor=default;verticalAlign=top;aspect=fixed;imageAspect=0;image=https://media.designrush.com/inspiration_images/343050/conversions/slack_logo_4fa608051047-desktop.jpg;" vertex="1" parent="1">
          <mxGeometry x="858" y="737.3100000000002" width="150" height="112.58" as="geometry" />
        </mxCell>
        <mxCell id="b14iFvUfpB23LM1vfQa2-7" style="edgeStyle=orthogonalEdgeStyle;rounded=0;orthogonalLoop=1;jettySize=auto;html=1;" edge="1" parent="1" source="b14iFvUfpB23LM1vfQa2-4" target="b14iFvUfpB23LM1vfQa2-2">
          <mxGeometry relative="1" as="geometry" />
        </mxCell>
        <mxCell id="b14iFvUfpB23LM1vfQa2-8" value="Post Message" style="edgeLabel;html=1;align=center;verticalAlign=middle;resizable=0;points=[];" vertex="1" connectable="0" parent="b14iFvUfpB23LM1vfQa2-7">
          <mxGeometry x="-0.1054" y="1" relative="1" as="geometry">
            <mxPoint x="1" as="offset" />
          </mxGeometry>
        </mxCell>
        <mxCell id="b14iFvUfpB23LM1vfQa2-4" value="" style="shape=image;verticalLabelPosition=bottom;labelBackgroundColor=default;verticalAlign=top;aspect=fixed;imageAspect=0;image=data:image/png,iVBORw0KGgoAAAANSUhEUgAAAfQAAADwCAYAAAD2MJYoAAAZUklEQVR42u3dz3LbOILH8R8k0oc+TLNrRHffwjxB5CeIfNs9xdkXiH3ck50niP0ESW57s/0CG+cJor7NLeonCHJLR3INp2pqarZkC3sgnb92bNkCBFLfT9VUTc10SxZA4AeAICgBAAAAAAAAAAAAAAAAAAAAAAAAAAAAAAAAAAAAAAAAAAAAAAAAAAAAAAAAAAAAAAAAAAAAAAAAAAAAAAAAAAAAAAAAAAAAAAAAAAAAAAAAAAAAAAAAAAAAAAAAAAAAAAAAAAAAAAAAAAAAAAAAAAAAAAAAAAAAAAAAAAAAAAAAAAAAAAAAAAAAAAAAAAAAAAAAAAAAAAAAWCRDEQDAYhVZlilNtyQ9lDEDzWaZjMm++EdGMsbKudd2PD6ixECgA0BsQb62tqvZbO+bAP8RK2OO7MePB5QgCHQAWHaY53lf0itJxS0/wmo63bRlaSlN3EaHIgCAO4f5E0lv7xDmklQoTd/WAwOAGToABA3z9fUtOfdqgR9ZStq04/GI0gWBDgAhwjzLCqXpmzvOzC9jNZ1u2LIsKWXcFEvuAHBbafrMQ5hLUqEk2aOAwQwdAMLMzt95/IpS0+l9Zulghg4APnW7vmfQmZJkm4IGgQ4APhnzMMB3PKCgQaADgCdFlmUyph/gqwaUNgh0APCY6S37HhDoALCCkiSjEECgAwAAAh0AIpihWwoBBDoANN2//10G+qYRhQ0CHQA8qQ978T9LN+Y9pQ0CHQB8ms1ee/8O504oaBDoAOB39uw/bLvdIQUNAh0APLKTyVCSz8A9sh8+WEoaBDoA+J9B78i50sd4Qd3uAQWMuS5HigAAbqf85z/L7Kef/k/G/MdCP9iYHfvnn3+jhEGgA0CoUP/Xv/6W/fSTkTGDhXygcwd2PP4fShYEOgCED/Vh9tNP/7jTTN25Us79tz09fUGJgkAHgGXO1P/yl2M594uk/pxhPlSS/Kcdj4eUJG7LUAQAsFhFnvcl7Ul6qKvfmGYlvZZzJ/WOeYBAB4Bowz3LMiXJ5xm7MaWmU1ufNgcAAAAAAAAAAIC4cA8duESRZYWSpJAxhSTJueKaf6WUMaWcs9wjvVO5Z0rTQs4NZMw9GVPIuULGZF/9g87Z+r9ZOfeHpJHOzkaUecA6kvp13dyTMZmcyyRl39VVVV/lV23EuffqdKycs3Y8HlGqBDqwmM5pbW0g5x7W4d2/QXjfjHOljBmpeqf1H5JGdF5X1EGSbMuYR3Kuf2kg3NxI0lDT6UtblpbSXdjgdkvGPJAxg4W1j8vaiXOv2fFPoMffKPJ8W9ITSuLyTtiOx0+D1UWvN1Cn81DODSQNAv9WK2ko545DdVz1I1S7C/zI3+14fLSQoEjTXTm3fccQv8pQ0vEi/tYflO2hrn4s7Y69s3lpP348WUp/1esNZMwjGbO18ACPsI3Udflmkb/Bjsc7Cx709iX1Zcw9SRftpSDQl9NA9mXMM0ri0hH60E4mm8FmgeFD/Mcd13R64HM2WXfOi+usjHltP37culNdpOlzSdvBynk63fRRxkWev/MW6LPZjj09PQp1MdarVbtybkvzHozjt40c+ByUfVGXboEfV9rx+JfQfRZvW0O7B1JZlhXr68+UJO9kzPOIwvxidL2tNH1X5PlhkWVFIwrVuQd36DR3lSTvAoZ5Vc5p+q5YX2dAfV0bcW4/ojC/aCOHRZ6/q1c5myIrsiwL3WcR6GhvR3URHs7te1rSXaRtpenbhoROdsv6eC7pxdLqwrn9Is/fNWbgFDrI424jF8H+tjH1V20cDNpnEehoY0dVFHn+dqnhcdugbEboZPez7N5cwVHVx14UwZCmb1Y91Iteb6A0fduQwe6X+o1ZbZnN5lrpWMSAl0BHG2flbxXXsuHtQqfazBYlt7a2cdMwV5q+UWzLuCsa6vXg6nm9p6K5v78a+B7edlk7iBsGc10nbxYx4CXQ0Z7Oqhq1N21WfnXoSG+K9fWtKP+68/OblXGavop0cLVyoV4/VbCQ4IhEdZsq1jo05mZ7TZLkUAva20Ogoz1hXm3oaZNMzh1GOVPvdPo3qpO4NiFeFuqvVqJ95Hk/wpWStg/MbtZGjFnYoJ1AB2Eee6hL8XVYFyfoXVUnvd6gIXXSr+9dtjvMnWv2EnszQz27pl62F91GCHQQ5k0I9dhmks7duybwDxtUvntFrzdoZfu4CPN23Ia6LtRfRXZPvbjq76kHHwvf2Eego7ktOMuKFQjzWGeSxQ8HWU2bDTZrADJP+1iFMP/URpSmUe1+N9LPl/4fabrro40Q6GhqZ3Wxe3qV7EV0P/3SR9caPMgqil5vv0Xto9oAtzph/rmN/PrrXix/zGVPg9Szcy9/I4GOZqpG4sUK/vJoZukuTX+5ol6ayZjdqB+Dmq99vFnR9iHNZs+iuZ8+mxUh2wiBjmbOPtrz6M28BtHc7/3m4Iw6DAcNLttMSdL466qRtzwWXY9pGsctlMsfXfPWRgh0NHV2vrpiecnPt4+upelW44Ok4bP0Bj1dsBoDX2O+WsWqz6P31kYIdDRxdr698p1VHPfSv97w49xuC8o209pac1cZWri5r9ED3+9fZOT1FdoEOpidN1H1istl63810DKm35KybeTAhKX2KGfpxTeTEa9/T0Kdo2mNdAnfaeXcSMa8l3Nl3enfq3cQZzIm/N9kzBNJ+7F0VkqSrTZdY0WWZbYsy8aEefV0wfaSBkAjGfO7nLMyppRz9ptrtZBzhaQH9aCvCNhOnkkaLrNu7mfZvXdl+V5p6r2fINDRnBmI5/tP33RSpaSXOjs7smVpr/3ber2BjNmW5yW1L7+yyPO+HY9HS6yS7FPwGfPo1uVsTPndAGHZkmRb0ovGNI61tSd1aIYK8aGk13X7KOdsx31Vm1pDtJWlD87qR9fey7lHMoZAb4lSkm3I31pE+nf57wCqID+wk8lcnbmdTIaShsVvv+3r/DzMI0PODSSNllojaVoUWWZ1k5WTKryPNZsNdX4+umygVJ8vUKhazh9IeriU67EaoDQi0APPzkdy7ml9vd9KPQjdrtvKvvd2XT25sL+0Cvr86Boz9LaoAyL6DqLI8yeSjgKO9EsZ8/QGnVYWoEGMlCSP7YcPtx541f/u/SLPj7x3VJ3OYOnX1GzWV7db3GA2d3CTEKhnUqP6P0f1Nbmt6pjMkMHenGX3aik3RNm8tOPx3sL6xKqtbBe93kjG+DtfYdm3p4wp6hW8zPdXsSkOywtzySpJNm60bNztDrz/LdPp5l3C/CvT6Z732bNzD5d+0VQvaRlcOVirZnObd5zRHdnx+L6cOwj627rdrYY0Xf8bRZ07WGSYXzLZ2fHZtS31qZCqjQT5fgId1RVf7ZANG+bd7jwBOvD+tyxwNmbLspRzTz2X4aXHrwburJ6p09m9crA2562Lazr+fUkbnzYmeu8dr39F7NLbbZb1vc/OnTuoy95fAxyPj7y2l2U+FVLdOw9ywiNL7ljGG8tG6nbnW9rudB54bHAvFzYz/zqAhkWvd7LI9x1/96dfbLiJy7yDtXk6/lGR55uS3gb4HQ+jb7zd7rbnbzjyHeZfztSLPH/kZfBuTPx1WfVFpaRh/USN/bRh9NsnBwh0RBPm0+mmHY/nnWX5mqHbRc4iL/FSkr/Zwfl5Fl2HlCRewvyrUO/1ngaY9fSjv4/e6Tzy+OlW3W7o2xw7Oj9/t2J1OZJzr2/6RM0PLwcibaXD/DBwmB/b8Xhj7sdcqmVFXwF07HnWMfS6RFzdn4uHMU99hvmXszmFeL642nEfZ/utDiopfLaNEHX5Vb1++GDl3ImHj86UJP3IqtDKuU07Hm/YyWT/rmFOoK9qkGdZVuT5m8AHUby04/Htvu+6XdR3kSRHAULutcfPvhfNheXc0I7HRwG/z//s8ZsX0ETF70ElNkjbuKKv8PS5MdXlsabTjbtsFiXQ8eV7xAfBvvSuO2TTdKTZ7HG9aeZl/RjUImYONsgMxLnRSlxcSbIT8usunv33+iUxb4xzzudy+zD07PyrevWxqnX5m8+WUW8ndjze9rH8zz301QrzIvh7khewQ7buWC7tXIo878u5TFK/PmLygarjWG/SEQ+DlMHnk9B8lG8RxcXl3HICwLkDr0fvxnZL45vL32O5Hi/1l1WrWos+xyGGwZlVknjbzU+gE+b+zGY79vT0yGvr+PwM+/AWYf97oNCxvo98XDpjlhIA9ZMEpbdDO5y7F2l7zjy+DKdc9FLwLcp9VB8Is0hZBFV34HPgS6AT5j4aY6lOZ8eenp4sdSj8o7CvNhSVXB0LMp0ur679zOb8z4Lv1HN73OAVxy2iUQvr0vreY0Kgtz3Mq1nqm2Cj0+oo10378eMo5nJZxI5SfKrz4ZIfBxp6DPQs0jLPPK769Iv19XcR/MaFf+SnN58taXbufZxHb9TiMO/1BnLuVYgzhC9y0vczyIiQMX8s9fu73aHOz719/JJD4Koy73v87Ky+VYVFCrCKRaC3d2Ye/lx2T6eDLaxMsqzQ2lpfs1lRP+6VqVqGy7wPejzMNiIKl+Eyv95++GB93kd3afqLYjuNL+7Nevi+/QdZxSLQ2xjmTTjKNdQKRafzUM4N5Fy/nnno0qXKNgeub7NZGcFfYeVrF3OMs1Xnfm79RksfxZYk95cyOAu0ikWgE+Z3Hnnq7OzxLY5y9TULz7S2tqvZbO9TgFcNiovDl7OzUQQz1j+8BXqnE1+gh7uNhsUMeoO0EQKdML+LYzuZbEcS5IXS9Jmk7Stn4fAzNW7CO8PvIrbz8i9WDbjGm8MYS6BjnjA/XMJRrnvRzMjDDmTwWRxhvgrP+jNDb3J9BWknBHrTg7wKtOdBwzzA+5HnmJW/iea0NAIdwGV5Pp3+nUDH9WFeBVp/5cI89PP1ABA5Ar25YV4oTV8p5PnEAY5ynSvMWXYEAAK9BWEe9ihX6bE9PR1G8dsJcwC3Eehe9rLw+lTC/DpWxmwu/WUN+uIWA2EO4DZ5HuheNjN0XB9oed6X9CpomMd0+lv1WFrBlRDXZRnFX8FjXAAz9EaFebUJbCXDvB7M7HElRHhtZlm2/KmXuefxs22ExW658uYX3Zn8BPpKhvkTSW8DLjWPIjyX/RVXQpyM9HMEgZ6tVKFX+1own9aXGUvu8Yf5rqQXATuKqI5yrctgWyy1x5sta2sbWvbLS6qz+n0NFuILAmP+4fGzD+Rc+1YAWr4hjkCPPcxX+CjXbzzhaojYbLbUwVaRZV7flhflRirnRjLGT7s4P7cxPJ4KAp0wv30HEcWBMZd01oWkQYDfP5T02ssofjbrq9PZbe3F2ukMFHIV6bteLOn7/Pgo77v6POq20+kLBDoWFGJ5/lzO7a16mNed9Zb3IE+SHZ/7BYpebyCpvYHu3MMlf/+Wxx3uZZRlnqYjnZ/7+vQH9MINHVtTBNHNzA8Vcje3c0+jDXNJMuaRx08/tpNJbJv/miirBy3LukZ8DiiivDbshw/W48a4fhRPLoBAb2yQZ1lW5PmboC9Zmc127GTyIuYykb/ldmvH422uvIWF6taSrpFCxvQ9/q73EZf5yNcAzfdtjBvVba83KPJ8u77tBgK9OWFen/4WZpbjXCnnNqPf+OK3UzkI+Ev6K3AZP1nKrC5Jtj23FRttiTv3u8fBwvI3ohrzTNKh0vRdkedvizx/vtSVIAIdN5phpOnbgJ1+NEe5LjEISzsehxvM+L1tEItMSbK3hE7fb/DE/fiWzza8tcxl90s2w/Yl7cmYN0Wv9/diff0Vs3cCPcYwD3/623g8akQB+XrPuXOjoHUcauVl+TOq3ZAdbH1Gg+/vi7at2Mlk6PE++nIGaBeqY56vus4yObfF7J1AJ8ybtAHM53GeoaytrdIz9JnS9DDgQMl/4JydjSJvI6/bMkD7pm635/hXPs/e89wVef6m6PX26uOiCXR4n1n0lSRvA4b5SNPpRuN2czf8OM8iywrNZnsrdnkPivX1Z96/JUmeh5id27IsIy/vYRsGaDeend/wGpQxzyW9LfL8XZHnh8X6+tYq7Nwn0MOH+ZOg7/N27kTT6WYDOqaQA4UwI/c0PVzJV706t1+/f8BPG1pffxZoV/0o+rKeTk88n+seZoD2uX/cnXN2fu1HStqWc6+Uplttb3oEeugwl44CdvLHdjJ5TJh/P/Pwfb+t7gQHK1zGRz6CIPAJir/HXsi2LEs5d+x9gBYg1Osl8hfevqDbHba90RHoocK8ahBHAWdJBzxn/cNZupcOqj5P4HngM/hjnqkfLuI+7BfnNIQr16YEgDEngeryubf+sbpGXnn8+4ercIBU4rZ4i9Wd2tLJ9SdJLeElK0c6Oztq2CMdZeCVhEGR50/seLyw2U290fGVvn/czsq5bCWX36VtpemgyPMDTadDW5Z2zjLNtLa2W+9FCFl+o6YEgJ1MhkWeD+V/RWivyPMtSQeLfOyzyPPdun/0V7/GHK9CY0vk9I5YvsPA779UmP+95tWRIU9/+9yJNmt27tyBpP1v/rfS4xndknRU/PrrL/bPP1/cdfaotbXdKwdtzu2oOst9q4VNwGo63VCa/uiNZIWqR4xU5PmRqqXs0WWPTxZZVihJCkn9+vn9gZyT5+vgMr83rv0YMwjwTYWkwyLPn0m61SDtU5vpdgf1S4sGnuu31HR6ohXAy1kQ8fKHx3c+X5jNnhd5/kjSsabTk5uuEtSn+22perVrFTpXBJ6dTIbFX/+6tYRQCpPoZVkWeW51s13n2/V/VOR5NWjrdErNZrGtYBw1qg6qWfpN62BhwV4P0oaSRnLuvaSRjCk1nX7djpKkkDGFqhe/9Ov314eq75NV2UdEoCPmWcco0BGUA0kDpelhkecjGWM1m/1xyQDj57pT6s9x6M2w/ndty+vq+Fb7EqpDQrLIBju2MYcvfV0HOzLmzRK+efDdLDtNr6v3cH9dt3ugFUGgI+YOyi6ho7+YPWxd8TfNH3TL+y0hDSU9a8lvaWQABLyX3iRHq/Q2RXa5I15pOmr4L7Cfzsxv/m+5NkxCHqnreUY3bPDfvuP5ufSmlcfBKv1cAh3xhkQ1sm7y6Prgq9/S/o72dQt+Q6NndPXfvlIh9gMvV2l2TqAjfrNZU0PCXjLTa3fncnb2ovGDlhbM6Oxk8kJ+j4RtSvt7sWo/mkBH3EIcmuGDc8ffzQ6M+aPVPWiIU8uYnd90YLLT+gHkjx2s2uycQEcTZhvDBs76rJLk6JKQb38Hk6ZNnRXZNt1vrcPs8YreT3+5yINvCHRgwQ20FbODtj+69jlImjdLd65191vteDyqDzVaqTmAptP9Ve0oCXTE7+zshZqyfOjc8MrZwXQ6Won66nb3GzYztPV95/al2+npiaRVCXWrbnel3yxJoCP+Vlrdm21Cp2SVJDs//P9Xob6atNPauVLd7mar66MaYLY71KsB5ONVvG9OoKN5ndJkMtRsFvfSuzFPf9Sh1DMHuyL19UJN2Gl9TZ21LNQ3Wnn9Ve982Gzk6X4EOlY21E9P9yTF2WidO7AfP57caBa/KqbTx1H/3uoVw0cr037G41G9GtGma9AqSTYIcwIdzQyJzehC3bkDO5ns3/Cffr8yAVKWZbQBMl+dtadOPnywdjy+X7/dsOkz86G63c1VX2Yn0NHskJhON6NZfnfu6VzB0JbjUecIkOhCfUXD/Kt6mUz25VyTZ+sv7WRCmBPoaEOo29PTPTn3dIm7qa2c25x7d/QqPIsea6g7V849AGt3qA+/mK0347p0bihpw47He9QggY52dUgvlCQbCv/c80tNpxufXrwyj5a/pOWHoT6dbixxZWWkJNlo6+Npd56td7ubkQe7lTGP7WTC5jcCHW0OCjseb8u5zXr0HmR2cNtnXVd5ifDTyspsFm6z3MWsfDzeYHn2mnY0mexrOt1Q9YhbHGXl3FDObdrx+P4NN52utESON/PcyUz/uMFF+VJSRmH90J3CuJ4tD4vffit0fr4n6ZGkYgEdykjSa52dvVjYgRWz2WN1Oou5HjqdsmkVXR92clLk+baceyJjBl6CXHq50HoL3bY7neAz0bqsjiQdFXnel7Qt5x7KmH7QEJd+19nZkS1LG/B7vWWh0w1yYgEMOYK2qsN9IKkv5x7ImOKakLdybiRj3ksaaTodBu1QfJVDrzeQMW98ZYAdj+8voJ72FhAcVtJrOXdyq9shmKctLWYQVg28rIz5vW5zJ6t80huBDtymg8qy4otZiW31b4080L+pl0zd7kDG9OXcvXoQlsmY7IsQsJLK+kCR9zLGtmXw1ajrKs/7ci6TMYWcK2RMptns56vTxryXVMqYUs5ZnZ1Z6oxAB9DSQAdwe2yKAwCAQAcAAAQ6AAAg0AEAAIEOAACBDgAACHQAAECgAwAAAh0AAAIdAAAQ6AAAgEAHAAAEOgAABDoAACDQAQAAgQ4AAAh0AAAIdAAAQKADAACvEooAaLmzM6skOfD06SUFDAAAAAAAAAAAAAAAAAAAAAAAAAAAAAAAAAAAAAAAAAAAAAAAAAAAAAAAAAAAAAAAAAAAAAAAAAAAAAAAAAAAAAAAAAAAAAAAAAAAAAAAAAAAAAAAAAAAAAAAAAAAAAAAAAAAAAAAAAAAAAAAAAAAAAAAAAAAAAAAAAAAAAAAAAAAAAAAAAAAAAAAAAAAAAAAAAAAAAAAAABoo/8H/LhNx69k7FwAAAAASUVORK5CYII=;" vertex="1" parent="1">
          <mxGeometry x="584" y="760" width="140" height="67.2" as="geometry" />
        </mxCell>
      </root>
    </mxGraphModel>
  </diagram>
</mxfile>
